<svg width="18" height="16" viewBox="0 0 18 16" fill="none" xmlns="http://www.w3.org/2000/svg">
<path d="M-0.000976562 11.2661C0.0738646 11.2623 0.100695 11.1942 0.143528 11.1517C3.7723 7.5088 7.39919 3.86403 11.0242 0.217362C11.1414 0.0996212 11.1955 0.111916 11.3066 0.221145C13.5114 2.44262 15.7194 4.66095 17.9308 6.87612C18.0216 6.96738 18.0273 7.00994 17.9308 7.10546C15.0551 9.98767 12.1826 12.8721 9.31321 15.7587C9.28046 15.7946 9.24024 15.8228 9.19541 15.8412C9.15058 15.8597 9.10225 15.868 9.05386 15.8656C7.59814 15.8624 6.14243 15.8624 4.68671 15.8656C4.63533 15.8672 4.58423 15.8573 4.53704 15.8368C4.48986 15.8163 4.44775 15.7856 4.41371 15.7469C2.9922 14.3148 1.5688 12.8844 0.143528 11.4557C0.0997533 11.4118 0.0686873 11.3498 -0.000505404 11.3352L-0.000976562 11.2661ZM8.57845 14.805C8.63552 14.8084 8.69263 14.7991 8.74564 14.7775C8.79865 14.756 8.84622 14.7229 8.88488 14.6806C9.65306 13.9013 10.4252 13.126 11.2012 12.3546C11.3029 12.2534 11.3104 12.2047 11.204 12.0979C9.49004 10.3842 7.77983 8.6662 6.07339 6.94374C5.97313 6.84302 5.92559 6.85295 5.83192 6.94752C4.42799 8.36388 3.02107 9.77725 1.61117 11.1876C1.52409 11.2751 1.50479 11.3186 1.60458 11.4179C2.70036 12.5099 3.79239 13.606 4.88064 14.7061C4.91201 14.7396 4.95035 14.7656 4.99292 14.7823C5.03548 14.7991 5.08121 14.8062 5.12682 14.8031C5.70766 14.7993 6.28897 14.8031 6.8684 14.8031C7.43983 14.7998 8.00891 14.7965 8.57845 14.805ZM13.5886 9.95063C14.5375 8.99736 15.4954 8.03367 16.4565 7.0733C16.5267 7.00332 16.5154 6.96738 16.4518 6.90733C16.3191 6.7825 16.1934 6.6501 16.0649 6.52101C14.4724 4.91929 12.8784 3.31804 11.2831 1.71726C11.2313 1.66525 11.196 1.55649 11.0826 1.66998C10.128 2.63744 9.16777 3.59828 8.21601 4.55251L13.5886 9.95063ZM12.7455 10.6438C11.0071 8.89774 9.26959 7.15117 7.53303 5.40412C7.45725 5.32752 7.42242 5.34596 7.35981 5.41216C7.18565 5.59563 7.01008 5.77815 6.82369 5.94838C6.72013 6.04295 6.72955 6.09449 6.82369 6.19095C8.28724 7.65492 9.74814 9.12077 11.2064 10.5885C11.4676 10.851 11.7321 11.1087 11.9891 11.3772C12.0593 11.4501 12.0988 11.4501 12.1675 11.3772C12.3535 11.181 12.5479 10.9923 12.7385 10.8008C12.763 10.7758 12.7856 10.7493 12.8147 10.7176C12.7912 10.694 12.7691 10.6684 12.7455 10.6438Z" fill="#212224"/>
</svg>
