<svg width="33" height="33" viewBox="0 0 33 33" fill="none" xmlns="http://www.w3.org/2000/svg">
<path d="M19.4789 18.5651C20.1587 17.961 20.6387 17.1645 20.8553 16.2813C21.0719 15.398 21.0149 14.4698 20.6917 13.6197C20.3686 12.7696 19.7946 12.0379 19.046 11.5216C18.2973 11.0053 17.4094 10.7288 16.5 10.7288C15.5906 10.7288 14.7027 11.0053 13.954 11.5216C13.2054 12.0379 12.6314 12.7696 12.3083 13.6197C11.9851 14.4698 11.9281 15.398 12.1447 16.2813C12.3613 17.1645 12.8413 17.961 13.5211 18.5651C12.9365 18.7567 12.4194 19.1125 12.0316 19.5901C11.7257 19.9535 11.5061 20.3816 11.3896 20.8421C11.2731 21.3026 11.2626 21.7836 11.359 22.2487L12.8965 29.9362C13.0437 30.6613 13.4362 31.3135 14.0079 31.7832C14.5796 32.2528 15.2957 32.5111 16.0355 32.5147H16.9645C17.7043 32.5111 18.4204 32.2528 18.9921 31.7832C19.5638 31.3135 19.9563 30.6613 20.1035 29.9362L21.641 22.2487C21.7374 21.7836 21.7269 21.3026 21.6104 20.8421C21.4939 20.3816 21.2743 19.9535 20.9684 19.5901C20.5806 19.1125 20.0635 18.7567 19.4789 18.5651ZM13.2969 15.2179C13.2969 14.5843 13.4847 13.9651 13.8367 13.4383C14.1887 12.9116 14.6889 12.501 15.2742 12.2586C15.8595 12.0161 16.5036 11.9527 17.1249 12.0763C17.7462 12.1999 18.317 12.505 18.765 12.9529C19.2129 13.4009 19.518 13.9716 19.6416 14.593C19.7652 15.2143 19.7017 15.8584 19.4593 16.4437C19.2169 17.0289 18.8063 17.5292 18.2796 17.8812C17.7528 18.2331 17.1335 18.421 16.5 18.421C15.6518 18.4168 14.8395 18.078 14.2397 17.4782C13.6399 16.8784 13.3011 16.0661 13.2969 15.2179ZM20.3758 22.0085L18.8383 29.696C18.75 30.1285 18.5155 30.5174 18.1743 30.7974C17.8331 31.0774 17.4059 31.2314 16.9645 31.2335H16.0355C15.5941 31.2314 15.1669 31.0774 14.8257 30.7974C14.4845 30.5174 14.25 30.1285 14.1617 29.696L12.6242 22.0085C12.5608 21.73 12.5626 21.4406 12.6292 21.1628C12.6959 20.885 12.8257 20.6264 13.0086 20.4069C13.1891 20.1864 13.4164 20.0087 13.674 19.8869C13.9316 19.765 14.2131 19.7019 14.498 19.7022H18.502C18.7869 19.7019 19.0684 19.765 19.326 19.8869C19.5836 20.0087 19.8109 20.1864 19.9914 20.4069C20.1743 20.6264 20.3041 20.885 20.3708 21.1628C20.4374 21.4406 20.4391 21.73 20.3758 22.0085ZM26.1094 16.4991C26.1094 13.9506 25.097 11.5064 23.2949 9.70426C21.4927 7.90216 19.0486 6.88974 16.5 6.88974C13.9514 6.88974 11.5073 7.90216 9.70515 9.70426C7.90304 11.5064 6.89063 13.9506 6.89063 16.4991C6.89255 17.6868 7.10959 18.8642 7.53125 19.9745C7.59463 20.1317 7.59314 20.3076 7.5271 20.4637C7.46106 20.6198 7.33586 20.7433 7.17891 20.8073L6.93867 20.8554C6.80942 20.8538 6.68365 20.8133 6.57789 20.7389C6.47213 20.6646 6.39133 20.56 6.34609 20.439C5.85264 19.1844 5.60261 17.8473 5.60938 16.4991C5.60938 13.6107 6.75678 10.8407 8.79917 8.79828C10.8416 6.75589 13.6116 5.60849 16.5 5.60849C19.3884 5.60849 22.1584 6.75589 24.2008 8.79828C26.2432 10.8407 27.3906 13.6107 27.3906 16.4991C27.3974 17.8473 27.1474 19.1844 26.6539 20.439C26.6308 20.5262 26.5894 20.6076 26.5326 20.6778C26.4758 20.7479 26.4048 20.8053 26.3242 20.8461C26.2437 20.8869 26.1555 20.9102 26.0653 20.9146C25.9751 20.9189 25.885 20.9041 25.801 20.8711C25.7169 20.8382 25.6408 20.7878 25.5775 20.7234C25.5143 20.659 25.4654 20.5819 25.434 20.4972C25.4026 20.4126 25.3895 20.3222 25.3955 20.2322C25.4015 20.1421 25.4264 20.0543 25.4688 19.9745C25.8904 18.8642 26.1075 17.6868 26.1094 16.4991ZM32.5156 16.4991C32.5202 19.1908 31.8443 21.8399 30.5507 24.2004C29.2571 26.5608 27.3877 28.5559 25.1164 30.0003C25.0147 30.0614 24.8987 30.0946 24.7801 30.0964C24.6719 30.1011 24.5644 30.0769 24.4686 30.0262C24.3729 29.9756 24.2924 29.9003 24.2355 29.8081C24.1886 29.7382 24.1563 29.6595 24.1405 29.5768C24.1247 29.494 24.1258 29.409 24.1438 29.3267C24.1618 29.2444 24.1962 29.1666 24.245 29.098C24.2937 29.0293 24.3559 28.9712 24.4277 28.9272C27.1145 27.2123 29.1726 24.6723 30.2934 21.6884C31.4142 18.7046 31.5372 15.4377 30.6439 12.378C29.7506 9.31835 27.8893 6.63084 25.3391 4.71872C22.7889 2.80661 19.6874 1.77301 16.5 1.77301C13.3126 1.77301 10.2111 2.80661 7.66093 4.71872C5.11074 6.63084 3.24937 9.31835 2.35609 12.378C1.46281 15.4377 1.58579 18.7046 2.70658 21.6884C3.82737 24.6723 5.88554 27.2123 8.57227 28.9272C8.65193 28.9679 8.7222 29.0248 8.77854 29.0943C8.83489 29.1637 8.87606 29.2442 8.89941 29.3306C8.92276 29.4169 8.92777 29.5072 8.91411 29.5956C8.90046 29.684 8.86845 29.7686 8.82014 29.8438C8.77182 29.9191 8.70829 29.9834 8.63361 30.0327C8.55893 30.0819 8.47477 30.115 8.38655 30.1297C8.29833 30.1444 8.208 30.1405 8.12137 30.1182C8.03475 30.096 7.95375 30.0558 7.88359 30.0003C5.53927 28.5041 3.62498 26.4231 2.32914 23.9624C1.0333 21.5016 0.400585 18.7458 0.493274 15.9662C0.585963 13.1867 1.40086 10.4791 2.85775 8.11017C4.31465 5.74119 6.36332 3.79243 8.80211 2.45569C11.2409 1.11895 13.9858 0.440318 16.7665 0.486593C19.5472 0.532867 22.268 1.30245 24.6609 2.71959C27.0539 4.13674 29.0366 6.15259 30.4138 8.56873C31.7911 10.9849 32.5155 13.718 32.5156 16.4991Z" fill="black"/>
</svg>
