<svg width="28" height="28" viewBox="0 0 28 28" fill="none" xmlns="http://www.w3.org/2000/svg">
<path d="M20.2048 5C20.2648 5.1361 20.3334 5.26819 20.4103 5.39546C20.5238 5.61005 20.6437 5.82075 20.7585 6.03404C20.7763 6.0681 20.8042 6.09591 20.8382 6.11378C21.1641 6.29141 21.49 6.46969 21.8159 6.64862L21.8736 6.68039L21.5371 6.8658C21.3063 6.99244 21.0753 7.11842 20.8441 7.24376C20.8057 7.26388 20.7744 7.29535 20.7546 7.33387C20.5698 7.67423 20.3844 8.01329 20.1938 8.36207C20.1134 8.21686 20.0363 8.07812 19.9604 7.93874C19.8489 7.73474 19.7379 7.53074 19.6272 7.32674C19.6097 7.2924 19.5818 7.26448 19.5475 7.247C19.2207 7.0698 18.8948 6.89152 18.5698 6.71216L18.5134 6.68039L18.986 6.42107C19.1734 6.31799 19.362 6.21621 19.5501 6.11378C19.5774 6.10088 19.6 6.07981 19.6149 6.05348C19.8042 5.70211 19.9961 5.35203 20.1873 5.0013L20.2048 5Z" fill="#212224"/>
<path d="M10.8611 7.2373C11.2935 7.00068 11.7142 6.76988 12.1363 6.54168C12.1879 6.51349 12.2297 6.47032 12.2562 6.41786C12.4838 5.99841 12.71 5.58025 12.9428 5.16016C12.9681 5.16534 12.9726 5.18739 12.981 5.20294C13.2014 5.60619 13.4214 6.00943 13.641 6.41267C13.6696 6.46937 13.7148 6.51597 13.7706 6.54622C14.1907 6.77247 14.6082 7.00003 15.0258 7.23147C15.0258 7.25675 15.0018 7.25999 14.9868 7.26777C14.575 7.49338 14.1629 7.71834 13.7505 7.94265C13.7077 7.96568 13.6729 8.00117 13.6507 8.04444C13.4303 8.45027 13.209 8.85546 12.9868 9.25999C12.9758 9.28009 12.9635 9.30019 12.9473 9.32482L12.6147 8.72061C12.4881 8.48982 12.3623 8.25859 12.2374 8.02693C12.2197 7.99291 12.1918 7.96525 12.1577 7.94784C11.7428 7.72223 11.3285 7.49576 10.9149 7.26842L10.8611 7.2373Z" fill="#212224"/>
<path d="M21.8627 12.8638C21.9859 13.0894 22.1032 13.3014 22.2167 13.5153C22.2405 13.5606 22.2776 13.5975 22.323 13.621C22.537 13.7357 22.749 13.8531 22.9629 13.9698C22.9473 14.0028 22.9143 14.0093 22.889 14.0236C22.6945 14.1308 22.5 14.2369 22.3055 14.3419C22.2714 14.3603 22.2438 14.3889 22.2264 14.4236C22.1078 14.6433 21.9872 14.8625 21.8634 15.0894C21.7428 14.8683 21.6267 14.6557 21.5114 14.4411C21.4872 14.3929 21.4484 14.3536 21.4005 14.3289C21.1866 14.2161 20.9759 14.0975 20.7522 13.9743C20.9467 13.868 21.1282 13.7623 21.3156 13.6683C21.4204 13.6193 21.5051 13.5358 21.5554 13.4317C21.6481 13.2411 21.7551 13.0583 21.8627 12.8638Z" fill="#212224"/>
<path d="M5.03735 20.0899C5.0581 20.0717 5.08014 20.0542 5.10218 20.0348C8.99975 16.1372 12.8967 12.2394 16.7929 8.34144C16.8429 8.29152 16.8662 8.2831 16.9226 8.34144C17.8501 9.27326 18.7793 10.2025 19.7103 11.1291C19.7589 11.1777 19.757 11.1998 19.7103 11.2478C15.808 15.1471 11.9067 19.0474 8.00656 22.9489C7.98582 22.9696 7.97156 23.0021 7.9346 23.0021C7.89765 23.0021 7.88339 22.9677 7.86134 22.9463C6.94163 22.027 6.02234 21.1082 5.10348 20.1897C5.07781 20.1645 5.05597 20.1357 5.03865 20.1042L5.03735 20.0899ZM7.99295 21.4799C10.4928 18.9774 12.9928 16.4774 15.4931 13.9797C15.5359 13.9369 15.5314 13.9181 15.4931 13.8786C15.0484 13.4364 14.6049 12.9928 14.1628 12.5476C14.1213 12.5061 14.1032 12.5081 14.063 12.5476C11.5618 15.0513 9.05983 17.5535 6.55697 20.0542C6.51483 20.0964 6.52714 20.1132 6.5615 20.147C6.82644 20.4093 7.09051 20.6732 7.35372 20.9385L7.89311 21.4773C7.90867 21.4928 7.92618 21.5077 7.95211 21.5311C7.96451 21.5131 7.97816 21.4959 7.99295 21.4799V21.4799ZM16.8208 9.79233C16.1751 10.4372 15.5294 11.0822 14.8837 11.7275C14.8591 11.7528 14.8545 11.7651 14.8837 11.7923C15.3388 12.2461 15.7926 12.7 16.2451 13.1538C16.2775 13.1855 16.2925 13.1771 16.3184 13.1538C16.3832 13.0824 16.4571 13.0137 16.5271 12.9444C17.0951 12.376 17.6632 11.8075 18.2315 11.2387C18.2555 11.2147 18.2964 11.1985 18.2497 11.1499C17.795 10.6987 17.3412 10.2461 16.8882 9.79233C16.8779 9.78131 16.8662 9.77159 16.8526 9.75927L16.8208 9.79233Z" fill="#212224"/>
</svg>
