<svg width="18" height="18" viewBox="0 0 18 18" fill="none" xmlns="http://www.w3.org/2000/svg">
<path d="M0.00332113 0.0205133C0.529819 0.217549 1.0365 0.461251 1.55073 0.686569C4.2326 1.86218 6.91368 3.04062 9.59398 4.22189C9.63947 4.24492 9.6901 4.25593 9.74106 4.25387C9.79201 4.25181 9.84159 4.23674 9.88506 4.21011C12.5411 2.8274 15.1988 1.44737 17.858 0.070008C17.8986 0.0487961 17.9406 0.0294695 17.9995 0.000244141V0.230748C17.9293 0.712023 17.858 1.1933 17.7891 1.67505C17.6165 2.91319 17.4452 4.15166 17.2754 5.39043C17.1055 6.62293 16.9357 7.85573 16.7659 9.08885C16.5888 10.3732 16.4127 11.658 16.2375 12.9433C16.2262 13.0272 16.1945 13.0564 16.1153 13.0498C16.0742 13.0465 16.0327 13.0498 15.9917 13.0498C13.2029 13.0498 10.4141 13.0487 7.62528 13.0465C7.46723 13.0465 7.35023 13.0795 7.24172 13.2016C7.08041 13.3812 6.89847 13.5412 6.69966 13.6782C6.59964 13.7479 6.60766 13.7988 6.65531 13.9026C7.03273 14.726 7.14973 15.5698 6.74967 16.4178C6.41093 17.1404 5.79669 17.5769 5.0895 17.897C4.73001 18.0591 4.72906 18.0563 4.61773 17.6877C4.53281 17.4016 4.45308 17.1131 4.35872 16.8298C4.32287 16.7228 4.33702 16.679 4.44553 16.637C4.75707 16.5244 5.03913 16.343 5.27066 16.1062C5.63675 15.7188 5.6811 14.8882 5.36501 14.4654C5.3084 14.3895 5.25792 14.422 5.19753 14.4357C4.59084 14.5738 4.00867 14.5328 3.46377 14.2C2.20414 13.4359 2.08855 11.6583 3.24911 10.749C3.38074 10.6463 3.39819 10.569 3.35007 10.4191C2.24518 7.017 1.14359 3.61287 0.0453088 0.206707C0.0259662 0.146842 -0.0113038 0.0888629 0.00332113 0.0205133ZM2.3235 2.66871C3.11796 5.13212 3.9118 7.59585 4.705 10.0599C4.75973 10.231 4.82106 10.3404 5.01968 10.3281C5.08714 10.3234 5.15696 10.3536 5.22537 10.371C5.98822 10.5628 6.61238 10.989 7.17096 11.5254C7.23937 11.5909 7.3007 11.6456 7.41062 11.6456C9.89308 11.6418 12.3756 11.6418 14.858 11.6456C14.9613 11.6456 14.9944 11.6192 15.0085 11.5127C15.1897 10.1749 15.3774 8.83855 15.5624 7.50126C15.7473 6.16396 15.9318 4.82714 16.1158 3.48984C16.1596 3.17119 16.2012 2.85254 16.2436 2.53484C16.1611 2.51362 16.1176 2.5617 16.0676 2.58716C14.0176 3.64933 11.9681 4.71259 9.91903 5.77696C9.88039 5.80078 9.83626 5.81425 9.79089 5.81607C9.74552 5.81788 9.70045 5.80799 9.66003 5.78733C7.7569 4.94734 5.8522 4.10939 3.94592 3.27348C3.40118 3.03402 2.85629 2.79582 2.31123 2.55888C2.2834 2.60837 2.31453 2.6376 2.3235 2.66871ZM5.98917 12.4432C6.03918 12.4026 6.01889 12.3805 5.98162 12.3489C5.58816 12.0236 5.16923 11.7479 4.64415 11.697C4.54613 11.6859 4.44689 11.6953 4.35269 11.7245C4.25849 11.7538 4.17138 11.8022 4.09689 11.8668C4.02239 11.9314 3.96213 12.0107 3.9199 12.0998C3.87767 12.1889 3.8544 12.2857 3.85157 12.3842C3.84166 12.7821 4.16954 13.1036 4.66113 13.0998C5.13762 13.0663 5.57448 12.7788 5.98917 12.4432Z" fill="#212224"/>
</svg>
