<svg width="18" height="16" viewBox="0 0 18 16" fill="none" xmlns="http://www.w3.org/2000/svg">
<path d="M18 1.0167V4.77005C17.9723 4.78903 17.9383 4.79657 17.9052 4.79112C17.7832 4.79112 17.6613 4.79112 17.5393 4.79112C17.4572 4.79112 17.4522 4.79777 17.45 4.87705C17.45 4.89479 17.45 4.91253 17.45 4.93249V10.7444C17.45 10.8807 17.45 10.8807 17.5892 10.8813C17.6912 10.8813 17.7932 10.8813 17.8952 10.8813C17.9756 10.8813 17.9867 10.8952 17.9867 10.9755V14.9002C17.9867 14.9812 17.9762 14.9911 17.8958 14.9945H14.3703C14.2178 14.9945 14.2139 14.99 14.2134 14.8387C14.2134 14.7322 14.2134 14.6258 14.2134 14.5193C14.2134 14.4678 14.1923 14.4461 14.1419 14.4489C14.1197 14.4489 14.0975 14.4489 14.0753 14.4489H4.23846C4.0799 14.4489 4.09431 14.4406 4.0932 14.5925C4.0932 14.6945 4.0932 14.7965 4.0932 14.8985C4.09751 14.9293 4.09187 14.9605 4.07712 14.9878C4.05221 15.0029 4.02271 15.0086 3.99396 15.0039H0.102011C0.00887077 15.0039 0.00720717 15.0011 0.00720717 14.9058V11.3232C0.00720717 11.2345 0.0105338 11.2306 0.100902 11.23C0.222318 11.23 0.344288 11.23 0.466258 11.23C0.492869 11.23 0.521699 11.23 0.539994 11.209C0.550391 11.1818 0.554007 11.1525 0.550528 11.1236C0.550528 9.15875 0.550528 7.19392 0.550528 5.2291C0.550528 5.12653 0.550528 5.12432 0.447408 5.12432C0.332091 5.12432 0.216774 5.12432 0.102011 5.12432C0.0709573 5.12905 0.0392416 5.12235 0.0127516 5.10547C0.00639515 5.08427 0.00469286 5.06196 0.00776169 5.04005C0.00776169 3.72573 0.00776169 2.41141 0.00776169 1.09709C0.00515996 1.07504 0.00647375 1.05271 0.0116425 1.03111C0.0505455 1.0093 0.0959402 1.00203 0.139711 1.0106H3.15847C3.33144 1.0106 3.50442 1.0106 3.6774 1.0106C3.76943 1.0106 3.78828 1.02779 3.78828 1.12148C3.78828 1.24124 3.78828 1.36099 3.78828 1.48019C3.78828 1.56446 3.79382 1.56889 3.87975 1.57C3.89528 1.57 3.9108 1.57 3.92633 1.57H13.7671C13.9151 1.57 13.9074 1.58275 13.9074 1.42918C13.9074 1.32273 13.9074 1.21629 13.9074 1.10984C13.9074 1.01448 13.924 0.998959 14.0216 0.998959H17.8714C17.915 0.989052 17.9607 0.995359 18 1.0167ZM0.000554528 15.0006C0.0205133 15.0006 0.0399176 14.9972 0.0598763 14.9972H3.99618C4.02113 14.9972 4.05162 15.0089 4.07103 14.9867H3.98454H0.085379C0.0426896 14.9867 0.0121971 14.99 0.0121971 14.9274C0.0144147 13.721 0.0144147 12.5148 0.0121971 11.3087C0.0121971 11.2589 0.0310471 11.2533 0.074291 11.2533C0.218437 11.2533 0.362584 11.2533 0.50673 11.2533C0.528352 11.2533 0.556073 11.2672 0.571596 11.2372C0.380879 11.2444 0.190717 11.2433 0 11.2372L0.000554528 15.0006ZM16.3628 13.4432C16.4244 13.4432 16.4388 13.4266 16.4382 13.3667C16.4382 9.79521 16.4382 6.22371 16.4382 2.65221C16.4382 2.59178 16.4222 2.58013 16.3645 2.58013C11.4539 2.58013 6.54332 2.58013 1.63273 2.58013C1.5712 2.58013 1.55734 2.59732 1.55734 2.65664C1.55734 6.22667 1.55734 9.79614 1.55734 13.3651C1.55734 13.4305 1.57397 13.4438 1.63717 13.4438C4.08914 13.4438 6.5411 13.4438 8.99307 13.4438C11.445 13.4438 13.9016 13.4436 16.3628 13.4432Z" fill="#212224"/>
</svg>
